<svg viewBox="0 0 48 48" preserveAspectRatio="xMidYMid meet">
    <defs>
        <linearGradient id="lgbase" x1="16.4375" y1="49.110714" x2="17.402376" y2="43.420425" gradientUnits="userSpaceOnUse">
            <stop style="stop-color:#ffffff;stop-opacity:1;" offset="0" />
            <stop style="stop-color:#ffffff;stop-opacity:0;" offset="1" />
        </linearGradient>
        <linearGradient id="lgfade2">
            <stop style="stop-color:#164998;stop-opacity:1;" offset="0" />
            <stop style="stop-color:#164998;stop-opacity:0.48627451;" offset="1" />
        </linearGradient>
        <linearGradient id="lgfade1">
            <stop style="stop-color:#164998;stop-opacity:1;" offset="0" />
            <stop style="stop-color:#164998;stop-opacity:0;" offset="1" />
        </linearGradient>
    </defs>
    <g>
        <path style="opacity:1;color:#000000;fill:#2b65b4;fill-opacity:1;fill-rule:evenodd;stroke:#164998;stroke-width:1;stroke-linecap:butt;stroke-linejoin:miter;marker:none;marker-start:none;marker-mid:none;marker-end:none;stroke-miterlimit:4;stroke-dasharray:none;stroke-dashoffset:0;stroke-opacity:1;visibility:visible;display:inline;overflow:visible" d="M 27.625 46.375 A 11.1875 5.875 0 1 1  5.25,46.375 A 11.1875 5.875 0 1 1  27.625 46.375 z" transform="translate(8.750000,-7.000000)" />
        <path transform="matrix(2.066667,0.000000,0.000000,1.266667,-43.98333,9.475000)" d="M 35.375 22.125 A 1.875 1.875 0 1 1  31.625,22.125 A 1.875 1.875 0 1 1  35.375 22.125 z" style="opacity:1;color:#000000;fill:#164998;fill-opacity:1;fill-rule:evenodd;stroke:none;stroke-width:2;stroke-linecap:butt;stroke-linejoin:miter;marker:none;marker-start:none;marker-mid:none;marker-end:none;stroke-miterlimit:4;stroke-dasharray:none;stroke-dashoffset:0;stroke-opacity:1;visibility:visible;display:inline;overflow:visible" />
        <rect style="opacity:1;color:#000000;fill:#76d7f2;fill-opacity:1;fill-rule:evenodd;stroke:#164998;stroke-width:1.00015199000000021;stroke-linecap:butt;stroke-linejoin:miter;marker:none;marker-start:none;marker-mid:none;marker-end:none;stroke-miterlimit:4;stroke-dasharray:none;stroke-dashoffset:0;stroke-opacity:1;visibility:visible;display:inline;overflow:visible" width="22.136791" height="30.692028" x="16.028919" y="-4.0142608" rx="6.6936979" ry="6.6936979" transform="matrix(0.970732,0.240164,-0.264014,0.964519,0.000000,0.000000)" />
        <rect transform="matrix(0.970732,0.240164,-0.264014,0.964519,0.000000,0.000000)" ry="5.4198565" rx="5.4198565" y="-3.006144" x="17.210075" height="28.524395" width="19.862064" style="opacity:0.814;color:#000000;fill:none;fill-opacity:1;fill-rule:evenodd;stroke:#ffffff;stroke-width:1.00015210999999993;stroke-linecap:butt;stroke-linejoin:miter;marker:none;marker-start:none;marker-mid:none;marker-end:none;stroke-miterlimit:4;stroke-dasharray:none;stroke-dashoffset:0;stroke-opacity:0.85882354000000005;visibility:visible;display:inline;overflow:visible" />
        <path style="opacity:1;color:#000000;fill:url(#lgfade1);fill-opacity:1.0;fill-rule:evenodd;stroke:none;stroke-width:1;stroke-linecap:butt;stroke-linejoin:miter;marker:none;marker-start:none;marker-mid:none;marker-end:none;stroke-miterlimit:4;stroke-dasharray:none;stroke-dashoffset:0;stroke-opacity:1;visibility:visible;display:inline;overflow:visible" d="M 22.28125,15.84375 L 30.59375,17.78125 C 31.9375,18.15625 33.0625,19.78125 33.0625,19.78125 L 32.65625,21.375 C 32.65625,21.375 31.3125,19.53125 30.125,19.28125 C 30.125,19.28125 21.90625,17.28125 21.90625,17.28125 C 21.421036,17.149843 20.971366,16.960466 21.15625,16.375 C 21.34375,15.78125 21.71875,15.75 22.28125,15.84375 z " />
        <path style="opacity:1;color:#000000;fill:#2b65b4;fill-opacity:1;fill-rule:evenodd;stroke:#164998;stroke-width:1;stroke-linecap:butt;stroke-linejoin:miter;marker:none;marker-start:none;marker-mid:none;marker-end:none;stroke-miterlimit:4;stroke-dasharray:none;stroke-dashoffset:0;stroke-opacity:1;visibility:visible;display:inline;overflow:visible" d="M 31.5,19 L 31.375,34.375 L 31.375,34.40625 L 31.375,34.4375 C 31.462702,35.84074 30.279231,37.074596 29.125,36.84375 L 18.65625,34.6875 C 18.1875,34.5625 16.9375,34.0625 17.34375,32.625 L 15.40625,32.125 C 14.727493,34.561693 16.65625,36.28125 18.09375,36.59375 L 28.75,38.78125 C 31.324613,39.296173 33.497942,36.947282 33.375,34.375 C 33.37399,34.353864 33.376323,34.333663 33.375,34.3125 L 33.5,19 L 31.5,19 z " />
        <path d="M 21.25,19.28125 L 29.5625,21.21875 C 30.90625,21.59375 32.03125,23.21875 32.03125,23.21875 L 31.625,24.8125 C 31.625,24.8125 30.28125,22.96875 29.09375,22.71875 C 29.09375,22.71875 20.875,20.71875 20.875,20.71875 C 20.389786,20.587343 19.940116,20.397966 20.125,19.8125 C 20.3125,19.21875 20.6875,19.1875 21.25,19.28125 z " style="opacity:1;color:#000000;fill:url(#lgfade1);fill-opacity:1.0;fill-rule:evenodd;stroke:none;stroke-width:1;stroke-linecap:butt;stroke-linejoin:miter;marker:none;marker-start:none;marker-mid:none;marker-end:none;stroke-miterlimit:4;stroke-dasharray:none;stroke-dashoffset:0;stroke-opacity:1;visibility:visible;display:inline;overflow:visible" />
        <path style="opacity:1;color:#000000;fill:url(#lgfade1);fill-opacity:1.0;fill-rule:evenodd;stroke:none;stroke-width:1;stroke-linecap:butt;stroke-linejoin:miter;marker:none;marker-start:none;marker-mid:none;marker-end:none;stroke-miterlimit:4;stroke-dasharray:none;stroke-dashoffset:0;stroke-opacity:1;visibility:visible;display:inline;overflow:visible" d="M 24.09375,8.9687499 L 32.40625,10.90625 C 33.75,11.28125 34.46875,12.40625 34.46875,12.40625 L 34.0625,14 C 34.0625,14 33.125,12.65625 31.9375,12.40625 C 31.9375,12.40625 23.71875,10.40625 23.71875,10.40625 C 23.233536,10.274843 22.783866,10.085466 22.96875,9.4999999 C 23.15625,8.9062499 23.53125,8.8749999 24.09375,8.9687499 z " />
        <path d="M 23.1875,12.40625 L 31.5,14.34375 C 32.84375,14.71875 33.5625,15.90625 33.5625,15.90625 L 33.125,17.40625 C 33.125,17.40625 32.21875,16.09375 31.03125,15.84375 C 31.03125,15.84375 22.8125,13.84375 22.8125,13.84375 C 22.327286,13.712343 21.877616,13.522966 22.0625,12.9375 C 22.25,12.34375 22.625,12.3125 23.1875,12.40625 z " style="opacity:1;color:#000000;fill:url(#lgfade1);fill-opacity:1.0;fill-rule:evenodd;stroke:none;stroke-width:1;stroke-linecap:butt;stroke-linejoin:miter;marker:none;marker-start:none;marker-mid:none;marker-end:none;stroke-miterlimit:4;stroke-dasharray:none;stroke-dashoffset:0;stroke-opacity:1;visibility:visible;display:inline;overflow:visible" />
        <path style="opacity:1;color:#000000;fill:#2b65b4;fill-opacity:1;fill-rule:evenodd;stroke:#164998;stroke-width:0.78947347999999984;stroke-linecap:butt;stroke-linejoin:miter;marker:none;marker-start:none;marker-mid:none;marker-end:none;stroke-miterlimit:4;stroke-dasharray:none;stroke-dashoffset:0;stroke-opacity:1;visibility:visible;display:inline;overflow:visible" d="M 35.375 22.125 A 1.875 1.875 0 1 1  31.625,22.125 A 1.875 1.875 0 1 1  35.375 22.125 z" transform="matrix(1.266667,0.000000,0.000000,1.266667,-10.30833,-8.150000)" />
        <path style="opacity:1;color:#000000;fill:url(#lgfade1);fill-opacity:1.0;fill-rule:evenodd;stroke:none;stroke-width:1;stroke-linecap:butt;stroke-linejoin:miter;marker:none;marker-start:none;marker-mid:none;marker-end:none;stroke-miterlimit:4;stroke-dasharray:none;stroke-dashoffset:0;stroke-opacity:1;visibility:visible;display:inline;overflow:visible" d="M 20.34375,22.71875 L 28.65625,24.65625 C 30,25.03125 31.125,26.65625 31.125,26.65625 L 30.71875,28.25 C 30.71875,28.25 29.375,26.40625 28.1875,26.15625 C 28.1875,26.15625 19.96875,24.15625 19.96875,24.15625 C 19.483536,24.024843 19.096366,23.835466 19.21875,23.25 C 19.342601,22.657518 19.78125,22.625 20.34375,22.71875 z " />
        <path style="opacity:1;color:#000000;fill:url(#lgfade2);fill-opacity:1.0;fill-rule:evenodd;stroke:none;stroke-width:1;stroke-linecap:butt;stroke-linejoin:miter;marker:none;marker-start:none;marker-mid:none;marker-end:none;stroke-miterlimit:4;stroke-dasharray:none;stroke-dashoffset:0;stroke-opacity:1;visibility:visible;display:inline;overflow:visible" d="M 16.5625,23.34375 L 11.625,22.1875 L 12.03125,20.78125 L 16.9375,21.84375 C 17.34375,21.96875 17.78125,22.21875 17.625,22.8125 C 17.470582,23.399287 17,23.46875 16.5625,23.34375 z " />
        <path d="M 17.53125,19.976562 L 12.59375,18.820312 L 13,17.414062 L 17.90625,18.476562 C 18.3125,18.601562 18.75,18.851562 18.59375,19.445312 C 18.439332,20.0321 17.96875,20.101562 17.53125,19.976562 z " style="opacity:1;color:#000000;fill:url(#lgfade2);fill-opacity:1.0;fill-rule:evenodd;stroke:none;stroke-width:1;stroke-linecap:butt;stroke-linejoin:miter;marker:none;marker-start:none;marker-mid:none;marker-end:none;stroke-miterlimit:4;stroke-dasharray:none;stroke-dashoffset:0;stroke-opacity:1;visibility:visible;display:inline;overflow:visible" />
        <path style="opacity:1;color:#000000;fill:url(#lgfade2);fill-opacity:1.0;fill-rule:evenodd;stroke:none;stroke-width:1;stroke-linecap:butt;stroke-linejoin:miter;marker:none;marker-start:none;marker-mid:none;marker-end:none;stroke-miterlimit:4;stroke-dasharray:none;stroke-dashoffset:0;stroke-opacity:1;visibility:visible;display:inline;overflow:visible" d="M 18.40625,16.546875 L 13.46875,15.453125 L 13.875,14.046875 L 18.78125,15.046875 C 19.1875,15.171875 19.625,15.421875 19.46875,16.015625 C 19.314332,16.602412 18.84375,16.671875 18.40625,16.546875 z " />
        <path d="M 19.34375,13.148438 L 14.40625,12.085938 L 14.8125,10.679688 L 19.71875,11.648438 C 20.125,11.773438 20.5625,12.023438 20.40625,12.617188 C 20.251832,13.203974 19.78125,13.273438 19.34375,13.148438 z " style="opacity:1;color:#000000;fill:url(#lgfade2);fill-opacity:1.0;fill-rule:evenodd;stroke:none;stroke-width:1;stroke-linecap:butt;stroke-linejoin:miter;marker:none;marker-start:none;marker-mid:none;marker-end:none;stroke-miterlimit:4;stroke-dasharray:none;stroke-dashoffset:0;stroke-opacity:1;visibility:visible;display:inline;overflow:visible" />
        <path style="opacity:1;color:#000000;fill:url(#lgfade2);fill-opacity:1.0;fill-rule:evenodd;stroke:none;stroke-width:1;stroke-linecap:butt;stroke-linejoin:miter;marker:none;marker-start:none;marker-mid:none;marker-end:none;stroke-miterlimit:4;stroke-dasharray:none;stroke-dashoffset:0;stroke-opacity:1;visibility:visible;display:inline;overflow:visible" d="M 20.25,9.78125 L 15.3125,8.71875 L 15.71875,7.3125 L 20.625,8.28125 C 21.03125,8.40625 21.46875,8.65625 21.3125,9.25 C 21.158082,9.836787 20.6875,9.90625 20.25,9.78125 z " />
        <path transform="matrix(0.916296,0.000000,0.000000,0.807726,10.12589,1.916708)" d="M 27.625 46.375 A 11.1875 5.875 0 1 1  5.25,46.375 A 11.1875 5.875 0 1 1  27.625 46.375 z" style="opacity:0.29545455;color:#000000;fill:none;fill-opacity:1.0;fill-rule:evenodd;stroke:url(#lgbase);stroke-width:1.1623852;stroke-linecap:butt;stroke-linejoin:miter;marker:none;marker-start:none;marker-mid:none;marker-end:none;stroke-miterlimit:4;stroke-dasharray:none;stroke-dashoffset:0;stroke-opacity:1;visibility:visible;display:inline;overflow:visible" />
    </g>
</svg>
