<svg viewBox="0 0 48 48" preserveAspectRatio="xMidYMid meet">
  <g>
    <path d="m 4.5217805,38.687417 c 0.021796,0.416304 0.4599049,0.832609 0.8762095,0.832609 l 31.327021,0 c 0.416302,0 0.810812,-0.416305 0.789016,-0.832609 L 36.577584,11.460682 c -0.0218,-0.416303 -0.459897,-0.832616 -0.876201,-0.832616 l -13.270873,0 c -0.485057,0 -1.234473,-0.315589 -1.401644,-1.1066322 L 20.417475,6.6283628 C 20.262006,5.8926895 19.535261,5.5904766 19.118957,5.5904766 l -14.7788595,0 c -0.4163128,0 -0.8108208,0.4163041 -0.7890249,0.8326083 L 4.5217805,38.687417 z" style="fill:#497cc3;fill-opacity:1;fill-rule:nonzero;stroke:#2b4d83;stroke-width:1;stroke-linecap:round;stroke-linejoin:round;stroke-miterlimit:4;stroke-opacity:1;stroke-dasharray:none" />
    <path style="color:#000000;fill:#76d7f2;fill-opacity:1;fill-rule:nonzero;stroke:#164998;stroke-width:1;stroke-linecap:butt;stroke-linejoin:round;stroke-miterlimit:4;stroke-opacity:1;stroke-dasharray:none;stroke-dashoffset:0;marker:none;visibility:visible;display:block" d="m 39.783532,39.51062 c 1.143894,-0.04406 1.963076,-1.096299 2.047035,-2.321005 0.791787,-11.548687 1.65936,-21.231949 1.65936,-21.231949 0.07215,-0.247484 -0.167911,-0.494967 -0.48014,-0.494967 l -34.3711566,0 c 0,0 -1.8503191,21.866892 -1.8503191,21.866892 -0.1145551,0.982066 -0.4660075,1.804718 -1.5498358,2.183713 l 34.5450565,-0.0027 z" />
    <path d="m 9.6202444,16.463921 32.7910986,0.06481 -1.574046,20.001979 c -0.08432,1.071511 -0.450678,1.428215 -1.872656,1.428215 -1.871502,0 -28.677968,-0.03241 -31.394742,-0.03241 0.2335983,-0.320811 0.3337557,-0.988623 0.3350963,-1.004612 L 9.6202444,16.463921 z" style="opacity:0.814;fill:none;stroke:#ffffff;stroke-width:0.99999970000000005px;stroke-linecap:round;stroke-linejoin:miter;stroke-opacity:0.85882354000000005" />
  </g>
</svg>
