<svg viewBox="0 0 48 48" preserveAspectRatio="xMidYMid meet">
    <g>
        <g transform="translate(0.38005439,-0.14010788)">
            <rect ry="0.56650823" rx="0.56650788" y="1.4968988" x="4.5016017" height="45.003101" width="38.996792" style="fill:#eff7fe;fill-opacity:1;fill-rule:evenodd;stroke:#8692ac;stroke-width:0.99999976000000002;stroke-linecap:butt;stroke-linejoin:miter;stroke-miterlimit:4;stroke-opacity:1;stroke-dasharray:none;stroke-dashoffset:0" />
            <rect transform="scale(-1,1)" y="10" x="-39" height="2" width="30" style="color:#000000;fill:#8692ac;fill-opacity:1;fill-rule:evenodd;stroke:none;stroke-width:1;marker:none;visibility:visible;display:inline;overflow:visible" />
            <rect transform="scale(-1,1)" style="color:#000000;fill:#8692ac;fill-opacity:1;fill-rule:evenodd;stroke:none;stroke-width:1;marker:none;visibility:visible;display:inline;overflow:visible" width="30" height="2" x="-39" y="16" />
            <rect transform="scale(-1,1)" y="22" x="-39" height="2" width="30" style="color:#000000;fill:#8692ac;fill-opacity:1;fill-rule:evenodd;stroke:none;stroke-width:1;marker:none;visibility:visible;display:inline;overflow:visible" />
            <rect transform="scale(-1,1)" style="color:#000000;fill:#8692ac;fill-opacity:1;fill-rule:evenodd;stroke:none;stroke-width:1;marker:none;visibility:visible;display:inline;overflow:visible" width="30" height="2" x="-39" y="28" />
            <rect transform="scale(-1,1)" y="34" x="-39" height="2" width="30" style="color:#000000;fill:#8692ac;fill-opacity:1;fill-rule:evenodd;stroke:none;stroke-width:1;marker:none;visibility:visible;display:inline;overflow:visible" />
            <rect ry="0" rx="0" y="2.4997177" x="5.4997125" height="43.022316" width="37.025566" style="fill:none;stroke:#ffffff;stroke-width:0.99999981999999998;stroke-linecap:butt;stroke-linejoin:miter;stroke-miterlimit:4;stroke-opacity:1;stroke-dasharray:none;stroke-dashoffset:0" />
        </g>
        <path d="m 40.195372,16.155667 c 0,0 -19.696587,2.420936 -19.696587,2.420936 l 0,18.602333 c -1.405732,-0.476264 -3.357951,-0.600766 -5.497964,-0.160135 -3.720521,0.766058 -6.3864851,2.817935 -5.9783675,4.563843 0.4081175,1.745908 3.7524375,2.554232 7.4729595,1.788173 3.515828,-0.723912 6.562645,-2.594443 6.493048,-4.270263 l 0.133446,-16.253688 c 0,0 14.4595,-2.472743 14.4595,-2.472743 l 0,14.761968 c -8.754038,-1.281078 -11.352238,2.470976 -10.94412,4.216885 0.408118,1.745908 3.752439,2.554231 7.47296,1.788173 3.301235,-0.679728 5.664427,-2.359928 5.898301,-3.949994 l 0.186824,-21.035488 z" style="color:#000000;fill:#76d7f2;fill-opacity:1;fill-rule:nonzero;stroke:#164998;stroke-width:0.85405254;stroke-linecap:round;stroke-linejoin:round;stroke-miterlimit:4;stroke-opacity:1;stroke-dashoffset:0;marker:none;visibility:visible;display:block" />
        <path style="opacity:0.81415926;color:#000000;fill:none;stroke:#ffffff;stroke-width:0.85405254;stroke-linecap:butt;stroke-linejoin:miter;stroke-miterlimit:4;stroke-opacity:0.85714285;stroke-dasharray:none;stroke-dashoffset:0;marker:none;visibility:visible;display:block" d="m 39.430172,17.09554 c 0,0 -18.090345,2.420936 -18.090345,2.420936 l 0,18.651088 C 14.878702,36.540329 9.6110349,39.734246 9.9991429,41.394554 10.600765,44.229184 22.279031,42.335919 22.212846,38.713888 L 22.339749,22.08278 c 0,0 16.09921,-2.470203 16.09921,-2.470203 l 0,16.600361 C 31.976955,34.56748 27.109526,37.388442 27.497635,39.048751 27.9925,41.776625 38.069291,40.853674 39.252507,36.779409 L 39.430172,17.09554 z" />
    </g>
</svg>
