<svg viewBox="0 0 48 48" preserveAspectRatio="xMidYMid meet">
  <g>
    <path style="color:#000000;fill:#76d7f2;fill-opacity:1;fill-rule:nonzero;stroke:#164998;stroke-width:1;stroke-linecap:butt;stroke-linejoin:miter;stroke-miterlimit:4;stroke-opacity:1;stroke-dasharray:none;stroke-dashoffset:0;marker:none;visibility:visible;display:inline;overflow:visible" d="m 22.84375,1.9391632 c -0.465439,0.031846 -0.917834,0.1039347 -1.375,0.15625 l -0.03125,0 -1.09375,5.96875 C 18.561025,8.4701531 16.883841,9.1591547 15.375,10.095413 L 10.46875,6.5641632 C 9.1424618,7.5938538 7.9355516,8.7947585 6.875,10.095413 l 3.40625,4.96875 c -1.0342329,1.580515 -1.8119683,3.385224 -2.25,5.28125 -7.5e-5,0.009 -6.09e-5,0.02969 0,0.03125 l -5.9375,0.9375 c -0.1085533,0.886633 -0.15625,1.802939 -0.15625,2.71875 1e-7,0.7493 0.020689,1.488589 0.09375,2.21875 l 5.9375,1.0625 c 0.422279,2.061892 1.2244587,3.987512 2.34375,5.6875 l -3.53125,4.84375 c 1.0113261,1.255518 2.1788917,2.398616 3.4375,3.40625 l 5,-3.4375 c 1.747433,1.114717 3.698083,1.896374 5.8125,2.28125 l 0.9375,5.90625 c 0.666183,0.06064 1.349349,0.0625 2.03125,0.0625 0.962685,-10e-7 1.882237,-0.03648 2.8125,-0.15625 l 1.125,-6.03125 c 2.007561,-0.499601 3.893469,-1.36629 5.53125,-2.53125 l 4.8125,3.5 c 1.248028,-1.061797 2.389277,-2.282256 3.375,-3.59375 l -3.5,-5.0625 c 0.947853,-1.63699 1.604629,-3.443141 1.9375,-5.375 L 46,25.876663 c 0.05179,-0.616346 0.0625,-1.214087 0.0625,-1.84375 0,-1.094214 -0.127182,-2.167084 -0.28125,-3.21875 l -6,-1.09375 c -0.470194,-1.736224 -1.241676,-3.356102 -2.21875,-4.8125 l 3.53125,-4.84375 C 39.999177,8.7255561 38.750572,7.488982 37.375,6.4391632 l -5.09375,3.5 c -1.463996,-0.8658374 -3.039463,-1.5301821 -4.75,-1.90625 l -0.9375,-5.9375 C 25.740451,1.9950379 24.880129,1.9391632 24,1.9391632 c -0.237872,10e-8 -0.482684,-0.00748 -0.71875,0 -0.115083,0.00365 -0.228966,-0.00669 -0.34375,0 -0.03109,0.00181 -0.06272,-0.00212 -0.09375,0 z m 0.8125,15.1874998 c 0.114166,-0.0058 0.228152,0 0.34375,0 3.699127,0 6.71875,3.019624 6.71875,6.71875 1e-6,3.699126 -3.019624,6.6875 -6.71875,6.6875 -3.699125,1e-6 -6.6875,-2.988374 -6.6875,-6.6875 1e-6,-3.583527 2.8046,-6.539158 6.34375,-6.71875 z" />
    <path style="opacity:0.81399999999999983;color:#000000;fill:none;stroke:#ffffff;stroke-width:1.64875566999999990;stroke-linecap:butt;stroke-linejoin:miter;stroke-miterlimit:4;stroke-opacity:0.85882354;stroke-dasharray:none;stroke-dashoffset:0;marker:none;visibility:visible;display:inline;overflow:visible" d="m 36.239223,23.781593 a 12.727922,12.727922 0 1 1 -25.455844,0 12.727922,12.727922 0 1 1 25.455844,0 z" transform="matrix(0.606518,0,0,0.606518,9.7399727,9.5760356)" />
    <path d="M 22.125376,3.0752292 21.247187,8.8542393 C 19.576189,9.2347849 16.502462,10.39865 15.088183,11.276232 L 10.41615,7.7890453 C 9.1729817,8.7542033 9.087727,8.8196554 8.0936423,10.038796 l 3.3780527,5.009954 c -0.969415,1.481461 -2.133804,4.121495 -2.5518735,6.008088 0,0 -5.9194088,0.997841 -5.9194088,0.997841 -0.1017499,0.831066 -0.05285,2.609798 0.015632,3.294198 l 5.6542436,1.018588 c 0.395814,1.932669 1.8770307,5.043588 2.9261737,6.637034 l -3.5755761,4.724044 c 0.9479445,1.176832 1.1376642,1.284521 2.3173931,2.229005 l 4.781168,-3.50282 c 1.637918,1.044855 4.889033,2.315886 6.870935,2.676641 l 0.784687,5.706254 c 0.624432,0.05684 2.349481,0.216281 3.221443,0.10402 L 26.8747,39.001489 c 1.881743,-0.468289 5.13316,-1.80296 6.668298,-2.89491 l 4.776055,3.450808 c 1.169811,-0.995251 1.180292,-1.145216 2.104238,-2.374516 L 36.884093,32.15217 c 0.888449,-1.534398 2.037228,-4.535223 2.349237,-6.346009 l 5.794642,-0.961463 c 0.04855,-0.577719 0.05091,-2.188789 -0.0935,-3.174545 l -5.903777,-1.018588 c -0.440727,-1.627411 -1.953211,-4.559982 -2.869049,-5.925104 l 3.752352,-4.724043 C 38.888024,8.7477036 38.506552,8.575547 37.21719,7.5915225 L 32.274877,11.130719 C 30.902631,10.319146 28.166263,9.0819718 26.562929,8.7294728 L 25.689854,3.0752292 c -0.799821,-0.094085 -3.107395,-0.052306 -3.564478,0 z" style="opacity:0.814;color:#000000;fill:none;stroke:#ffffff;stroke-width:0.99999970000000005;stroke-linecap:butt;stroke-linejoin:miter;stroke-miterlimit:4;stroke-opacity:0.85882354000000005;stroke-dasharray:none;stroke-dashoffset:0;marker:none;visibility:visible;display:inline;overflow:visible" />
  </g>
</svg>
