<svg viewBox="0 0 48 48" preserveAspectRatio="xMidYMid meet">
  <g>
    <path d="M 41.625000,7.7951523 C 41.625000,7.7951523 18.562500,10.629798 18.562500,10.629798 L 18.562500,32.411048 C 16.916545,31.853397 14.630715,31.707619 12.125000,32.223548 C 7.7686860,33.120517 4.6471398,35.523035 5.1250000,37.567298 C 5.6028601,39.611561 9.5186850,40.558018 13.875000,39.661048 C 17.991641,38.813428 21.559123,36.623246 21.477633,34.661048 L 21.633883,15.629798 C 21.633883,15.629798 38.564340,12.734492 38.564340,12.734492 L 38.564340,30.019106 C 28.314340,28.519106 25.272139,32.912342 25.750000,34.956606 C 26.227860,37.000869 30.143686,37.947325 34.500000,37.050356 C 38.365376,36.254471 41.132410,34.287145 41.406250,32.425356 L 41.625000,7.7951523 z " style="color:#000000;fill:#76d7f2;fill-opacity:1;fill-rule:nonzero;stroke:#164998;stroke-width:1;stroke-linecap:round;stroke-linejoin:round;marker:none;marker-start:none;marker-mid:none;marker-end:none;stroke-miterlimit:4;stroke-dashoffset:0;stroke-opacity:1;visibility:visible;display:block" />
    <path style="opacity:0.81415928999999998;color:#000000;fill:none;fill-opacity:1;fill-rule:nonzero;stroke:#ffffff;stroke-width:1;stroke-linecap:butt;stroke-linejoin:miter;marker:none;marker-start:none;marker-mid:none;marker-end:none;stroke-miterlimit:4;stroke-dasharray:none;stroke-dashoffset:0;stroke-opacity:0.85714287;visibility:visible;display:block" d="M 40.729036,8.8956383 C 40.729036,8.8956383 19.547267,11.730284 19.547267,11.730284 L 19.547267,33.568621 C 11.982012,31.663311 5.8141632,35.403030 6.2685944,37.347065 C 6.9730255,40.666100 20.646969,38.449299 20.569474,34.208305 L 20.718063,14.735139 C 20.718063,14.735139 39.568437,11.842807 39.568437,11.842807 L 39.568437,31.279973 C 32.002153,29.353326 26.302939,32.656357 26.757371,34.600393 C 27.336802,37.794428 39.135597,36.713755 40.521011,31.943247 L 40.729036,8.8956383 z " />
  </g>
</svg>
